<?xml version="1.0" encoding="iso-8859-1"?><!DOCTYPE svg PUBLIC "-//W3C//DTD SVG 1.1//EN" "http://www.w3.org/Graphics/SVG/1.1/DTD/svg11.dtd"><svg width="90" height="50" viewBox="0 0 90 50" xmlns="http://www.w3.org/2000/svg" xmlns:xlink="http://www.w3.org/1999/xlink"><svg width="50" height="50" viewBox="0 0 512 512" id="desktop" xmlns="http://www.w3.org/2000/svg"><path d="M385.477 294.777V22.675H0v272.102h170.064v45.35h-45.35v22.675h136.051v-22.675h-45.35v-45.35h170.062zm-362.802-45.35V45.35h340.127v204.076H22.675z" fill="#47B6A1"/></svg><svg width="40" height="40" viewBox="0 0 512 512" id="link" x="50" xmlns="http://www.w3.org/2000/svg"><path d="M476.697 37.322l-2.015-2.021c-47.073-47.066-124.097-47.066-171.162 0L194.467 144.369c-47.066 47.066-47.066 124.088 0 171.155l2.014 2.013c3.916 3.924 8.073 7.462 12.368 10.729l39.924-39.927c-4.651-2.747-9.063-6.034-13.059-10.028l-2.021-2.021c-25.557-25.549-25.557-67.136 0-92.695L342.758 74.539c25.559-25.559 67.137-25.559 92.692 0l2.021 2.012c25.55 25.559 25.55 67.146 0 92.695l-49.343 49.343c8.565 21.154 12.624 43.7 12.27 66.193L476.7 208.48c47.067-47.068 47.067-124.088-.003-171.158zM315.521 194.468c-3.916-3.916-8.073-7.461-12.369-10.72l-39.924 39.916c4.651 2.748 9.062 6.037 13.059 10.031l2.021 2.02c25.558 25.559 25.558 67.137 0 92.694L169.242 437.476c-25.559 25.553-67.138 25.553-92.694 0l-2.021-2.021c-25.549-25.561-25.549-67.138 0-92.694l49.344-49.343c-8.566-21.152-12.623-43.701-12.269-66.192l-76.301 76.299c-47.068 47.064-47.068 124.089 0 171.162l2.013 2.016c47.076 47.062 124.096 47.062 171.164 0l109.055-109.059c47.066-47.066 47.066-124.099 0-171.164l-2.012-2.012z" fill="#47B6A1"/></svg></svg>